<svg data-testid="icon" name="union" size="18" color="#5D38C0" version="1.1" xmlns="http://www.w3.org/2000/svg" viewBox="0 0 32 32" class="style__Icon-sc-__sc-hqksj3-1 dAwocS"><path d="M13.753 12.578l-11.798-11.69c-2.606 2.582-2.606 6.769 0 9.352l7.079 7.014 4.719-4.676zM20.14 8.078l4.781-5.79-1.18-1.169-5.309 5.26c-2.28 2.26-2.28 5.923 0 8.183s5.978 2.26 8.259 0l5.309-5.26-1.18-1.169-5.843 4.737c-0.367 0.297-0.901 0.271-1.236-0.061s-0.362-0.861-0.062-1.224l4.781-5.79-1.18-1.169-5.843 4.737c-0.366 0.297-0.901 0.271-1.235-0.061s-0.362-0.861-0.062-1.224zM13.779 18.849c0.661 0.655 0.688 1.708 0.061 2.395l-8.293 9.090c-0.881 0.966-2.386 1.041-3.361 0.168-0.030-0.026-0.059-0.054-0.087-0.082-0.929-0.921-0.929-2.413 0-3.334 0.028-0.028 0.057-0.055 0.087-0.082l9.175-8.216c0.694-0.621 1.757-0.594 2.418 0.061zM19.532 18.789c-0.694-0.621-1.757-0.594-2.418 0.061s-0.688 1.708-0.061 2.395l8.293 9.090c0.881 0.966 2.386 1.041 3.361 0.168 0.030-0.026 0.059-0.054 0.087-0.082 0.929-0.921 0.929-2.413 0-3.334-0.028-0.028-0.057-0.055-0.087-0.082l-9.175-8.216z" class="style__Path-sc-__sc-hqksj3-2 lcjQMU"></path></svg>