<svg xmlns="http://www.w3.org/2000/svg" width="71" height="86" viewBox="0 0 71 86" fill="#E7E6FF">
	<path d="M0 25.0001H70.2756V85.2348H0V25.0001Z" fill="#E7E6FF"/>
	<path d="M22.5838 0.333374H47.487L52.4754 5.38937V25.432L47.0781 25.4178V5.37871H23.0247V25.4178L17.5278 25.432V5.37871L22.5838 0.333374Z" fill="#E7E6FF"/>
	<path fill-rule="evenodd" clip-rule="evenodd" d="M27.1487 46L34.0815 52.869L31.3083 55.6167L27.1487 51.4952C25.6171 49.9778 25.6171 47.5175 27.1487 46Z" fill="#E7E6FF"/>
	<path fill-rule="evenodd" clip-rule="evenodd" d="M40.6443 46.8229L37.835 50.2249C37.6587 50.4383 37.6744 50.7493 37.8712 50.9443C38.068 51.1393 38.3818 51.1548 38.5972 50.9802L42.0309 48.1967L42.7241 48.8836L39.9148 52.2857C39.7386 52.4991 39.7542 52.8101 39.951 53.005C40.1478 53.2 40.4617 53.2155 40.6771 53.0409L44.1107 50.2574L44.804 50.9443L41.6842 54.0354C40.3441 55.3632 38.1714 55.3632 36.8313 54.0354C35.4911 52.7076 35.4911 50.5548 36.8313 49.2271L39.951 46.136L40.6443 46.8229Z" fill="#E7E6FF"/>
	<path fill-rule="evenodd" clip-rule="evenodd" d="M34.0969 56.5542C34.4853 56.939 34.5011 57.558 34.1327 57.9618L29.2598 63.3035C28.742 63.8712 27.8578 63.9154 27.2849 63.4024C27.2674 63.3867 27.2504 63.3707 27.2338 63.3542C26.6877 62.8132 26.6877 61.936 27.2338 61.3949C27.2504 61.3785 27.2674 61.3624 27.2849 61.3468L32.6762 56.5187C33.0837 56.1537 33.7085 56.1694 34.0969 56.5542Z" fill="#E7E6FF"/>
	<path fill-rule="evenodd" clip-rule="evenodd" d="M36.0564 56.5542C36.4449 56.1694 37.0696 56.1537 37.4771 56.5187L42.8684 61.3468C42.8859 61.3624 42.9029 61.3785 42.9196 61.3949C43.4656 61.936 43.4656 62.8132 42.9196 63.3542C42.9029 63.3707 42.8859 63.3867 42.8684 63.4024C42.2955 63.9154 41.4113 63.8712 40.8935 63.3035L36.0206 57.9618C35.6522 57.558 35.668 56.939 36.0564 56.5542Z" fill="#E7E6FF"/>
</svg>